# xmcd
#
# Track frame offsets: 
#        150
#        7013
#        15039
#        23102
#        37653
#        42529
#        55280
#        70117
#        82071
#        89801
#        100152
#        119953
#        123989
#        138272
#        159095
#        167046
#
# Disc length: 2316 seconds
#
# Revision: 0
# Processed by: cddbd v1.5.2PL0 Copyright (c) Steve Scherf et al.
# Submitted via: ExactAudioCopy v0.99pb5
#
DISCID=cb090a10
DTITLE=原舞者 - 百合戀
DYEAR=1900
DGENRE=
TTITLE0=序曲:來襲
TTITLE1=萬獸之舞
TTITLE2=熊鷹入侵
TTITLE3=採靈草
TTITLE4=工作歌
TTITLE5=鬼湖情緣
TTITLE6=庫勒勒勒
TTITLE7=情定鬼湖
TTITLE8=萬獸迎親
TTITLE9=部落
TTITLE10=蛇鷹大戰
TTITLE11=誇功\歌
TTITLE12=鞦韆之戀
TTITLE13=鬼湖之戀
TTITLE14=百合盛開
TTITLE15=終章:傳說
EXTD=
EXTT0=
EXTT1=
EXTT2=
EXTT3=
EXTT4=
EXTT5=
EXTT6=
EXTT7=
EXTT8=
EXTT9=
EXTT10=
EXTT11=
EXTT12=
EXTT13=
EXTT14=
EXTT15=
PLAYORDER=
